<svg width="36" height="36" viewBox="0 0 36 36" fill="none" xmlns="http://www.w3.org/2000/svg">
<rect width="36" height="36" fill="#223040"/>
<path d="M24.0442 24.1103C17.2722 27.3332 13.0694 24.6367 10.3791 22.9989C10.2126 22.8957 9.92969 23.0231 10.1752 23.305C11.0715 24.3918 14.0088 27.0112 17.8428 27.0112C21.6795 27.0112 23.962 24.9177 24.2475 24.5526C24.5311 24.1904 24.3308 23.9907 24.0442 24.1103H24.0442ZM25.9461 23.06C25.7643 22.8232 24.8403 22.779 24.2588 22.8505C23.6765 22.9198 22.8023 23.2758 22.8783 23.4895C22.9173 23.5695 22.9969 23.5336 23.397 23.4976C23.7981 23.4576 24.922 23.3158 25.1561 23.6219C25.3914 23.9301 24.7977 25.3985 24.6893 25.6353C24.5845 25.8721 24.7293 25.9332 24.9261 25.7755C25.1202 25.6178 25.4715 25.2095 25.7073 24.6317C25.9415 24.0507 26.0843 23.2403 25.9461 23.06Z" fill="#FF9900"/>
<path fill-rule="evenodd" clip-rule="evenodd" d="M19.4906 17.5341C19.4906 18.3798 19.512 19.085 19.0845 19.836C18.7396 20.4466 18.1931 20.8221 17.5825 20.8221C16.749 20.8221 16.2636 20.1871 16.2636 19.2498C16.2636 17.3997 17.9213 17.064 19.4906 17.064V17.5341ZM21.6795 22.8248C21.536 22.953 21.3284 22.9622 21.1666 22.8767C20.4461 22.2783 20.3179 22.0005 19.921 21.4296C18.7304 22.6447 17.8878 23.008 16.343 23.008C14.5174 23.008 13.0947 21.8814 13.0947 19.6253C13.0947 17.8639 14.0503 16.664 15.4088 16.0779C16.5873 15.5589 18.2328 15.4673 19.4906 15.3238V15.043C19.4906 14.527 19.5302 13.9164 19.228 13.4707C18.9624 13.0708 18.4556 12.9059 18.0099 12.9059C17.1826 12.9059 16.4438 13.3302 16.2636 14.2095C16.227 14.4049 16.0835 14.5973 15.8881 14.6064L13.7816 14.3805C13.6046 14.3408 13.4092 14.1973 13.4581 13.9256C13.9435 11.3734 16.2483 10.604 18.3121 10.604C19.3684 10.604 20.7483 10.8849 21.5818 11.6848C22.6381 12.6708 22.5373 13.9866 22.5373 15.4184V18.8011C22.5373 19.8177 22.9586 20.2634 23.3555 20.8129C23.4959 21.0083 23.5264 21.2434 23.3493 21.3899C22.9067 21.7593 22.119 22.4462 21.6855 22.8309L21.6794 22.8248" fill="white"/>
<path d="M24.0442 24.1103C17.2722 27.3332 13.0694 24.6367 10.3791 22.9989C10.2126 22.8957 9.92969 23.0231 10.1752 23.305C11.0715 24.3918 14.0088 27.0112 17.8428 27.0112C21.6795 27.0112 23.962 24.9177 24.2475 24.5526C24.5311 24.1904 24.3308 23.9907 24.0442 24.1103H24.0442ZM25.9461 23.06C25.7643 22.8232 24.8403 22.779 24.2588 22.8505C23.6765 22.9198 22.8023 23.2758 22.8783 23.4895C22.9173 23.5695 22.9969 23.5336 23.397 23.4976C23.7981 23.4576 24.922 23.3158 25.1561 23.6219C25.3914 23.9301 24.7977 25.3985 24.6893 25.6353C24.5845 25.8721 24.7293 25.9332 24.9261 25.7755C25.1202 25.6178 25.4715 25.2095 25.7073 24.6317C25.9415 24.0507 26.0843 23.2403 25.9461 23.06Z" fill="#FF9900"/>
<path fill-rule="evenodd" clip-rule="evenodd" d="M19.4906 17.5341C19.4906 18.3798 19.512 19.085 19.0845 19.836C18.7396 20.4466 18.1931 20.8221 17.5825 20.8221C16.749 20.8221 16.2636 20.1871 16.2636 19.2498C16.2636 17.3997 17.9213 17.064 19.4906 17.064V17.5341ZM21.6795 22.8248C21.536 22.953 21.3284 22.9622 21.1666 22.8767C20.4461 22.2783 20.3179 22.0005 19.921 21.4296C18.7304 22.6447 17.8878 23.008 16.343 23.008C14.5174 23.008 13.0947 21.8814 13.0947 19.6253C13.0947 17.8639 14.0503 16.664 15.4088 16.0779C16.5873 15.5589 18.2328 15.4673 19.4906 15.3238V15.043C19.4906 14.527 19.5302 13.9164 19.228 13.4707C18.9624 13.0708 18.4556 12.9059 18.0099 12.9059C17.1826 12.9059 16.4438 13.3302 16.2636 14.2095C16.227 14.4049 16.0835 14.5973 15.8881 14.6064L13.7816 14.3805C13.6046 14.3408 13.4092 14.1973 13.4581 13.9256C13.9435 11.3734 16.2483 10.604 18.3121 10.604C19.3684 10.604 20.7483 10.8849 21.5818 11.6848C22.6381 12.6708 22.5373 13.9866 22.5373 15.4184V18.8011C22.5373 19.8177 22.9586 20.2634 23.3555 20.8129C23.4959 21.0083 23.5264 21.2434 23.3493 21.3899C22.9067 21.7593 22.119 22.4462 21.6855 22.8309L21.6794 22.8248" fill="white"/>
</svg>
