<svg width="36" height="36" viewBox="0 0 36 36" fill="none" xmlns="http://www.w3.org/2000/svg">
<rect width="36" height="36" fill="#2F3C41"/>
<g clip-path="url(#clip0_3133_69)">
<path d="M18.1142 13.172C17.4032 13.172 16.303 12.3635 15.1442 12.392C13.6142 12.4123 12.2117 13.2793 11.4235 14.6525C9.83571 17.4088 11.014 21.4798 12.5627 23.72C13.3225 24.8105 14.2187 26.0375 15.4067 25.9993C16.5467 25.9505 16.9742 25.259 18.358 25.259C19.7312 25.259 20.1205 25.9993 21.328 25.97C22.5557 25.9505 23.335 24.86 24.085 23.759C24.952 22.493 25.312 21.2653 25.3315 21.1978C25.3022 21.188 22.945 20.282 22.9165 17.555C22.897 15.275 24.7765 14.1845 24.8642 14.1358C23.7925 12.5683 22.147 12.3928 21.5717 12.3538C20.0717 12.2368 18.8155 13.172 18.1142 13.172ZM20.6477 10.8725C21.28 10.1135 21.6977 9.05225 21.5815 8C20.6762 8.039 19.585 8.60375 18.9325 9.3635C18.3475 10.0355 17.842 11.117 17.9777 12.149C18.9812 12.227 20.014 11.633 20.647 10.8733" fill="white"/>
</g>
<defs>
<clipPath id="clip0_3133_69">
<rect width="18" height="18" fill="white" transform="translate(9 8)"/>
</clipPath>
</defs>
</svg>
