<svg width="36" height="36" viewBox="0 0 36 36" fill="none" xmlns="http://www.w3.org/2000/svg">
<rect width="36" height="36" fill="#76B900"/>
<path d="M15.2023 15.065V13.7542C15.3317 13.7446 15.4613 13.7391 15.591 13.7377C19.1862 13.624 21.5429 16.8305 21.5429 16.8305C21.5429 16.8305 19.0001 20.3606 16.2721 20.3606C15.9072 20.3606 15.5507 20.3038 15.2106 20.191V16.2072C16.6113 16.3768 16.8945 16.9928 17.7287 18.3934L19.5987 16.8223C19.5987 16.8223 18.231 15.0329 15.932 15.0329C15.6883 15.0275 15.4446 15.0382 15.2023 15.065ZM15.2023 10.7246V12.6844L15.591 12.6597C20.5868 12.4901 23.8502 16.7572 23.8502 16.7572C23.8502 16.7572 20.1102 21.3075 16.2143 21.3075C15.8752 21.3075 15.5424 21.2754 15.2106 21.2186V22.4332C15.4856 22.4653 15.7697 22.49 16.0447 22.49C19.672 22.49 22.2964 20.6356 24.8383 18.4494C25.2591 18.7894 26.9833 19.6071 27.3408 19.9637C24.9273 21.9877 19.2998 23.6157 16.1089 23.6157C15.8018 23.6157 15.5103 23.5992 15.2188 23.5671V25.2758H29V10.7246H15.2023ZM15.2023 20.1901V21.2269C11.8501 20.6274 10.9188 17.1385 10.9188 17.1385C10.9188 17.1385 12.5303 15.3565 15.2023 15.065V16.1989H15.195C13.7943 16.0284 12.6925 17.3402 12.6925 17.3402C12.6925 17.3402 13.3158 19.5512 15.2033 20.191M9.25133 16.9919C9.25133 16.9919 11.235 14.0613 15.2097 13.7533V12.6844C10.8069 13.041 7 16.7654 7 16.7654C7 16.7654 9.15417 23.0006 15.2023 23.5671V22.4332C10.7657 21.8832 9.25133 16.9919 9.25133 16.9919Z" fill="white"/>
</svg>
