<svg width="36" height="36" viewBox="0 0 36 36" fill="none" xmlns="http://www.w3.org/2000/svg">
<rect width="36" height="36" fill="#CC0000"/>
<g clip-path="url(#clip0_3133_66)">
<path d="M18 14.0215L19.8563 11.752C19.8563 11.752 23.04 11.8195 26.2095 13.2925C25.398 14.5195 23.7863 15.121 23.7863 15.121C23.6768 14.0418 22.9208 13.7785 20.5208 13.7785L18 28L15.4643 13.7755C13.0793 13.7755 12.3232 14.041 12.213 15.1195C12.213 15.1195 10.6035 14.5232 9.79125 13.297C12.96 11.8232 16.1437 11.755 16.1437 11.755L18 14.0215L17.997 14.023H18V14.0215ZM18 11.0973C20.5612 11.0748 23.4945 11.4933 26.496 12.8073C26.8972 12.0813 27 11.761 27 11.761C23.7188 10.459 20.646 10.0112 18 10C15.354 10.0112 12.2812 10.4575 9 11.7617C9 11.7617 9.14625 12.1555 9.504 12.8087C12.5055 11.4917 15.4388 11.0763 18 11.095V11.0973Z" fill="white"/>
</g>
<defs>
<clipPath id="clip0_3133_66">
<rect width="18" height="18" fill="white" transform="translate(9 10)"/>
</clipPath>
</defs>
</svg>
